# xmcd
#
# Track frame offsets: 
#        150
#        10809
#        22518
#        33427
#        46392
#        56794
#        66226
#        78418
#        88785
#        99579
#        111381
#        121593
#        134284
#        146891
#        157060
#        168569
#        178705
#        189177
#        199918
#        212259
#        224225
#        236252
#        246561
#        257318
#        266761
#        279909
#        288964
#        299219
#        312239
#        322494
#        336885
#        344375
#        352502
#        364679
#        372777
#
# Disc length: 5080 seconds
#
# Revision: 0
# Processed by: cddbd v1.5.2PL0 Copyright (c) Steve Scherf et al.
# Submitted via: ExactAudioCopy v1.0b3
#
DISCID=2413d623
DTITLE=Johnny Horton - The Singing Fisherman [Disc 2]
DYEAR=2014
DGENRE=Country
TTITLE0=Plaid And Calico [1959]
TTITLE1=Coal Smoke, Valve Oil And Steam [1959]
TTITLE2=Devilish Love Light [1959]
TTITLE3=Done Rovin' [1959]
TTITLE4=Mean, Mean Son Of A Gun [1959]
TTITLE5=Talk Gobbler Talk (Old Gobbler, The Hound Dog) [1959]
TTITLE6=Shadows On The Old Bayou [1959]
TTITLE7=In My Home In Shelby County [1959]
TTITLE8=Go And Wash Your Dirty Feet (Barefoot Boy Blues) [1959]
TTITLE9=Smokey Joe's Barbeque [1959]
TTITLE10=It's A Long Rocky Road [1959]
TTITLE11=Words [1959]
TTITLE12=Done Rovin' [1964]
TTITLE13=It's A Long Rocky Road [1964]
TTITLE14=Smokey Joe's Barbeque [1964]
TTITLE15=Mean, Mean Son Of A Gun [1964]
TTITLE16=Devilish Love Light [1964]
TTITLE17=Coal Smoke, Valve Oil And Steam [1964]
TTITLE18=Words [1964]
TTITLE19=Shadows On The Bayou [1964]
TTITLE20=On The Banks Of The Beautiful Nile [1964]
TTITLE21=In My Home In Shelby County [1964]
TTITLE22=Go And Wash Your Dirty Feet (Barefoot Boy Blues) [1964]
TTITLE23=Talk Gobbler Talk (Old Gobbler, The Hound Dog) [1964]
TTITLE24=Hank And Joe And Me [1969]
TTITLE25=The Golden Rocket [1969]
TTITLE26=A-Sleeping At The Foot Of The Bed [1969]
TTITLE27=I Just Don't Like This Kind Of Living [1969]
TTITLE28=Old Blind Barnabas [1969]
TTITLE29=Evil Hearted Me [1969]
TTITLE30=Hot In The Sugar Cane Field [1969]
TTITLE31=You Don't Move Me Baby Anymore [1969]
TTITLE32=The Gosh Darn Wheel [1969]
TTITLE33=Broken Hearted Gypsy [1969]
TTITLE34=The Church By The Side Of The Road [1969]
EXTD=
EXTT0=
EXTT1=
EXTT2=
EXTT3=
EXTT4=
EXTT5=
EXTT6=
EXTT7=
EXTT8=
EXTT9=
EXTT10=
EXTT11=
EXTT12=
EXTT13=
EXTT14=
EXTT15=
EXTT16=
EXTT17=
EXTT18=
EXTT19=
EXTT20=
EXTT21=
EXTT22=
EXTT23=
EXTT24=
EXTT25=
EXTT26=
EXTT27=
EXTT28=
EXTT29=
EXTT30=
EXTT31=
EXTT32=
EXTT33=
EXTT34=
PLAYORDER=
